<svg focusable="false" xmlns="http://www.w3.org/2000/svg" viewBox="0 0 32 21"><g fill="none" fill-rule="evenodd"><g id="error" class="Icon-fill"><path id="shape" d="M18.13 2a8.5 8.5 0 0 0 4 13H22c-.65 0-1 .3-1 1s.35 1 1 1h3c.65 0 1-.3 1-1 0-.22-.03-.4-.1-.55a8.44 8.44 0 0 0 3.1-.95v4.13A2.4 2.4 0 0 1 26.58 21H2.42A2.4 2.4 0 0 1 0 18.62V4.38A2.4 2.4 0 0 1 2.42 2h15.7zM10 7.83c0-.46-.35-.83-.78-.83H3.78c-.43 0-.78.37-.78.83v3.34c0 .46.35.83.78.83h5.44c.43 0 .78-.37.78-.83V7.83zM19 17c.65 0 1-.3 1-1s-.35-1-1-1h-3c-.65 0-1 .3-1 1s.35 1 1 1h3zm-6 0c.65 0 1-.3 1-1s-.35-1-1-1h-3c-.65 0-1 .3-1 1s.35 1 1 1h3zm-6 0c.65 0 1-.3 1-1s-.35-1-1-1H4c-.65 0-1 .3-1 1s.35 1 1 1h3zm18-3a7 7 0 1 1 0-14 7 7 0 0 1 0 14zM24 3v4a1 1 0 0 0 2 0V3a1 1 0 0 0-2 0zm1 8.75a1.25 1.25 0 1 0 0-2.5 1.25 1.25 0 0 0 0 2.5z"></path></g></g></svg>